<svg width="256" height="256" viewBox="0 0 256 256" fill="none" xmlns="http://www.w3.org/2000/svg">
  <defs>
    <linearGradient id="g1" x1="0%" y1="0%" x2="100%" y2="100%">
      <stop stop-color="#f7d26a" offset="0%"/>
      <stop stop-color="#d79a2c" offset="50%"/>
      <stop stop-color="#f7d26a" offset="100%"/>
    </linearGradient>
    <linearGradient id="g2" x1="0%" y1="0%" x2="0%" y2="100%">
      <stop stop-color="#0b0f1a" offset="0%"/>
      <stop stop-color="#1d2737" offset="100%"/>
    </linearGradient>
  </defs>
  <rect x="20" y="20" width="216" height="216" rx="48" fill="url(#g2)" />
  <circle cx="128" cy="128" r="84" fill="#0d121f" stroke="url(#g1)" stroke-width="10"/>
  <path d="M128 48L196 180H162L143 143H113L94 180H60L128 48Z" fill="url(#g1)"/>
  <rect x="109" y="126" width="38" height="18" rx="4" fill="#0d121f"/>
  <path d="M44 128c0-46.39 37.61-84 84-84s84 37.61 84 84" stroke="url(#g1)" stroke-width="6" stroke-dasharray="10 10" opacity="0.7"/>
  <path d="M74 196c18 12 38 18 54 18s36-4 54-16" stroke="url(#g1)" stroke-width="4" opacity="0.5"/>
</svg>
